
		<svg xmlns="http://www.w3.org/2000/svg" xmlns:xlink="http://www.w3.org/1999/xlink" version="1.1" width="3129.497449148961" height="1553.9693897875327">
			
			<g transform="scale(6.474872457448053) translate(10, 10)">
				<defs id="SvgjsDefs1022"/><g id="SvgjsG1023" featureKey="root" fill="#000" transform="matrix(1,0,0,1,0,8)"/><g id="SvgjsG1024" featureKey="text4" fill="#000" transform="matrix(2.2259028507662495,0,0,2.2259028507662495,-29.833722907089715,-11.129514253831246)"><g xmlns="http://www.w3.org/2000/svg"><path d="M51.9,53.1c0,0,8.1-21.7,7.4-48.1c0,0-2.6,21.5-4.6,29.9c-2,8.3-4.8,18-4.8,18L51.9,53.1z"/><path d="M51.9,67.2l-0.3,6.2c0,0,1.4-2.2,2.3-5.9l1.1-6.5c1.7-20.4,10.2-49.1,10.2-49.1s-5.6,16.3-8.4,26.8   C54,49,51.9,67.2,51.9,67.2z"/><path d="M42.4,60.2c0,0,2,4.6,2.8,6.2L45,62.6l-0.7-3.1l-2.1-6.3C34.3,34.4,28.4,5,28.4,5s2.6,17,5,27.6S42.4,60.2,42.4,60.2z"/><path d="M57.9,53.9l-2.1,6.3l-0.8,2.4l-0.7,4.6c0,0,2.6-4.2,3.4-6.3c0,0,6.6-17,9-27.6c2.4-10.6,5-27.6,5-27.6S65.9,35.1,57.9,53.9   z"/><path d="M47.8,76.4c-0.1-2.2-19.4-51-19.4-51c6,20.2,19.4,54.3,19.4,54.3V76.4z"/><path d="M15.2,25.4c17.6,23.9,27.9,45.5,27.9,45.5l-0.9-3.5C36.2,49.7,15.2,25.4,15.2,25.4z"/><path d="M52.2,80.7c0,0,13.4-34,19.4-54.3c0,0-19.2,48.8-19.4,51V80.7z"/><path d="M57.8,68.5l-0.9,3.5c0,0,10.3-21.5,27.9-45.5C84.8,26.5,63.8,50.7,57.8,68.5z"/><path d="M45.2,57.7l0.2-6.4c0,0-2.7-8.1-4.7-16.5C38.7,26.5,36.1,5,36.1,5C35.4,31.4,44,54.6,44,54.6L45.2,57.7z"/><path d="M48.3,52.6h0.9l1.2-4.9c0.8-9.9-3.3-29.1-3.3-29.1C50,41,48.3,52.6,48.3,52.6z"/><path d="M51.4,84.1c0-0.3,0-0.5,0-0.8c0.4-0.1,0.2-1,0.6-1.2c0.1-0.4-0.3-0.7-0.6-0.8c-0.1-2.2-0.1-4.3-0.1-6.5   c0-3.5,0.4-7,0.2-10.5c-0.2-3.6-0.9-6.6,0.7-9.9c-0.3-0.9-1.4-1.2-2.4-1.1c0,1.4-1.2,1.2-2,1.6c-0.1-5.5-0.3-11.9-0.9-16.8   c-1.3-10.8-4.6-27.7-4.6-27.7s4.4,29.7,3.3,50.1l0.2,6.6l2.1,6.9l-0.1-6.9c0,0,0-1.6,0.1-4.2c0.2,3.2,0.6,6.3,0.6,9.5   c0,3.1,0,6.2-0.1,9.3c-0.2-0.1-0.3-0.1-0.5-0.1c-0.5,1.1,0,1.5,0.4,1.5c-0.1,0.9-0.1,1.8-0.2,2.7c0,0.1,0,0.1,0,0.2   c-0.4,0-0.6,0.2-0.8,0.7c-0.1,0.3-0.4,1.2-0.3,1.5c0.2,0.4,0.5,0.5,0.7,0.3c-0.1,0.9-0.2,1.9-0.1,2.8c-0.5,0.5-0.3,2-0.3,2.6   c0,1.2,1.2,1,2.1,0.8c0.5-0.1,1,0.1,1.5,0c0.7-0.1,0.5-0.6,0.5-1.2c0.1-0.7,0.5-1.9-0.2-2.3c0.1-1.3,0.2-2.7,0.2-4   c0.1,0,0.2,0,0.3,0C52.9,86.7,51.8,84.7,51.4,84.1C51.5,84.1,51.5,84.1,51.4,84.1z"/></g></g><g id="SvgjsG1025" featureKey="text1" fill="#000" transform="matrix(4.131902106754333,0,0,4.131902106754333,172.68613431780523,26.11920009912766)"><path d="M7.94 12.04 c0.22 0.22 0.46 0.66 0.12 0.98 c-0.28 0.3 -0.76 0.3 -0.94 -0.04 c-0.32 -0.66 -0.72 -1.62 -1.82 -1.62 c-1.3 0 -1.84 0.94 -1.84 2.14 l0 1.36 l3.12 0 c-0.2 0.62 -0.24 0.7 -0.62 0.7 l-2.5 0 l0 7.54 c0 0.46 0.16 0.56 1.04 0.56 l0 0.34 l-3.34 0 l0 -0.34 c0.76 0 0.92 -0.1 0.92 -0.56 l0 -7.54 l-1.32 0 c-0.12 0 -0.2 -0.08 -0.2 -0.2 l0 -0.5 l1.52 0 l0 -1 c0 -1.88 0.96 -3.2 2.8 -3.2 c1.9 0 2.62 0.82 3.06 1.38 z M12.44 14.8 c2.36 0 4.16 1.92 4.16 4.58 c0 2.76 -1.8 4.74 -4.06 4.74 c-2.34 0 -4.18 -1.98 -4.18 -4.58 c0 -2.82 1.84 -4.74 4.08 -4.74 z M15.28 19.740000000000002 c0 -2.28 -1.34 -4.28 -3.06 -4.28 c-1.44 0 -2.5 0.96 -2.5 3.7 c0 2.32 1.32 4.18 3.04 4.18 c1.46 0 2.52 -0.94 2.52 -3.6 z M23.58 16.48 c-0.42 0.52 -0.7 -0.54 -1.4 -0.54 c-1.38 0 -1.86 1.84 -2 2.44 l0 4.7 c0 0.46 0.34 0.56 1.08 0.56 l0 0.36 l-3.38 0 l0 -0.36 c0.68 0 1.02 -0.1 1.02 -0.56 l0 -6.4 c0 -0.66 -0.12 -0.86 -1.2 -0.8 l0 -0.7 l1.9 -0.3 c0.72 -0.1 0.6 0.64 0.5 1.54 l-0.18 1.68 c0.32 -2.24 1.42 -3.22 3.14 -3.22 c0.72 0 1.48 0.58 0.98 1.12 z M30.02 22.84 c0 -0.02 0.38 0.32 0.3 0.46 c-0.48 0.44 -1.18 0.82 -2.14 0.82 c-1.28 0 -2.18 -0.62 -2.18 -2.58 l0 -5.92 l-1.18 0 l0 -0.62 c1.04 0 1.84 -1.02 2.38 -2.16 c0.08 -0.22 0.2 -0.2 0.2 0 l0 1.96 l2.5 0 l0 0.58 c0 0.2 -0.06 0.24 -0.22 0.24 l-2.28 0 l0 6.04 c0 0.84 0.38 1.62 1.24 1.62 c0.6 0 1.16 -0.3 1.38 -0.44 z M33 12.26 c-0.42 0 -0.82 -0.36 -0.82 -0.84 c0 -0.44 0.4 -0.8 0.82 -0.8 c0.44 0 0.84 0.36 0.84 0.8 c0 0.48 -0.4 0.84 -0.84 0.84 z M33.68 23.08 c0 0.46 0.34 0.56 0.86 0.56 l0 0.36 l-3.04 0 l0 -0.36 c0.54 0 0.88 -0.1 0.88 -0.56 l0 -6.6 c0 -0.46 -0.16 -0.62 -0.56 -0.62 l-0.4 0 l0 -0.7 l1.62 -0.34 c0.46 -0.1 0.64 0.2 0.64 0.64 l0 7.62 z M40.64 22.84 c0 -0.02 0.38 0.32 0.3 0.46 c-0.48 0.44 -1.18 0.82 -2.14 0.82 c-1.28 0 -2.18 -0.62 -2.18 -2.58 l0 -5.92 l-1.18 0 l0 -0.62 c1.04 0 1.84 -1.02 2.38 -2.16 c0.08 -0.22 0.2 -0.2 0.2 0 l0 1.96 l2.5 0 l0 0.58 c0 0.2 -0.06 0.24 -0.22 0.24 l-2.28 0 l0 6.04 c0 0.84 0.38 1.62 1.24 1.62 c0.6 0 1.16 -0.3 1.38 -0.44 z M50.160000000000004 22.54 c0 0.72 0.34 0.84 1.12 0.72 l0 0.46 l-0.84 0.38 c-0.76 0.32 -1.42 -0.4 -1.6 -2.28 l0 -0.04 c-0.26 0.76 -1.22 2.34 -3.08 2.34 c-1.88 0 -3.06 -1.14 -3.06 -3.4 l0 -4.56 c0 -0.46 -0.16 -0.64 -0.56 -0.64 l-0.3 0 l0 -0.44 l1.74 -0.32 c0.28 0 0.44 0.08 0.44 0.38 l0 5.84 c0 1.7 0.74 2.28 2.16 2.28 s2.24 -1.08 2.66 -2.52 l0 -4.58 c0 -0.46 -0.14 -0.64 -0.54 -0.64 l-0.3 0 l0 -0.44 l1.72 -0.3 c0.32 -0.08 0.44 0.06 0.44 0.36 l0 7.4 z M60.46 22.56 c0 0.74 0.34 0.86 1.08 0.72 l-0.04 0.46 l-0.98 0.3 c-0.58 0.18 -1.24 -0.44 -1.42 -1.88 c-0.28 0.44 -0.98 1.96 -2.92 1.96 c-1.98 0 -3.8 -1.68 -3.8 -4.68 c0 -2.32 1.24 -4.54 3.72 -4.54 c1.46 0 2.36 0.7 3 1.36 l0 -3.48 c0 -0.66 -0.34 -0.94 -1.1 -0.92 l0 -0.6 l1.88 -0.38 c0.74 -0.14 0.58 0.6 0.58 1.48 l0 10.2 z M59.1 21.12 l0 -3.88 c-0.86 -1.22 -1.76 -1.72 -2.7 -1.72 c-1.7 0 -2.66 1.62 -2.66 3.66 c0 2.66 1.34 4.12 2.8 4.12 c1.48 0 2.18 -1.18 2.56 -2.18 z M70.36 18.42 c0 0.76 -0.38 0.96 -1.12 0.96 l-5.2 0 c0 2.48 1.58 4.04 3.14 4.04 c1.5 0 2.16 -0.96 2.64 -1.62 l0.42 0.64 c-0.5 0.66 -1.22 1.68 -3.48 1.68 c-2.4 0 -4.22 -1.98 -4.22 -4.74 c0 -2.96 1.76 -4.58 4.06 -4.58 c1.96 0 3.76 1.34 3.76 3.62 z M68.89999999999999 18.72 c0.04 -1.86 -0.82 -3.24 -2.3 -3.24 c-1.6 0 -2.56 1.38 -2.56 3.24 l4.86 0 z"/></g><g id="SvgjsG1026" featureKey="text3" fill="#000" transform="matrix(0.9807530344717387,0,0,0.9807530344717387,232.11732124012457,138.42785015907927)"><path d="M12.84 22.5 c-1.26 1.1 -2.9 1.7 -4.72 1.7 c-3.76 0 -7.22 -2.96 -7.22 -7.2 s3.46 -7.2 7.22 -7.2 c1.8 0 3.42 0.6 4.66 1.66 l-1.34 1.52 c-0.88 -0.68 -2.02 -1.1 -3.18 -1.1 c-2.72 0 -5.08 2.12 -5.08 5.12 s2.36 5.12 5.08 5.12 c1.18 0 2.36 -0.44 3.24 -1.16 z M21.64 9.8 c3.76 0 7.2 2.96 7.2 7.2 s-3.44 7.2 -7.2 7.2 s-7.2 -2.96 -7.2 -7.2 s3.44 -7.2 7.2 -7.2 z M21.64 22.12 c2.58 0 4.92 -2.12 4.92 -5.12 s-2.34 -5.12 -4.92 -5.12 s-4.92 2.12 -4.92 5.12 s2.34 5.12 4.92 5.12 z M39.18 10 l2.2 0 l0 8.92 c0 3.42 -2.34 5.38 -5.22 5.38 s-5.22 -1.96 -5.22 -5.38 l0 -8.92 l2.2 0 l0 8.92 c0 2.38 1.46 3.3 3.02 3.3 s3.02 -0.92 3.02 -3.3 l0 -8.92 z M53.28 10 l2.2 0 l0 14 l-1.68 0 l-7.82 -9.98 l0 9.98 l-2.2 0 l0 -14 l1.7 0 l7.8 10 l0 -10 z M62.3 9.76 c2.3 0 3.88 1.48 4.54 2.92 l-1.64 0.94 c-0.7 -1.18 -1.6 -1.9 -2.9 -1.9 s-2.22 0.76 -2.22 1.8 c0 0.98 0.62 1.58 1.96 2.08 l0.98 0.36 c2.78 1.02 4.2 2.22 4.2 4.32 c0 2.58 -2.46 4.02 -4.84 4.02 c-2.44 0 -4.4 -1.46 -5 -3.44 l1.72 -0.88 c0.5 1.28 1.58 2.32 3.28 2.32 c1.4 0 2.56 -0.74 2.56 -2 c0 -1.34 -0.9 -1.88 -2.5 -2.48 l-0.96 -0.36 c-2.1 -0.78 -3.58 -1.84 -3.58 -4.02 c0 -2.12 1.92 -3.68 4.4 -3.68 z M71.32000000000001 21.96 l6.34 0 l0 2.04 l-6.74 0 l-1.8 0 l0 -14 l2.2 0 l6.16 0 l0 2.04 l-6.16 0 l0 3.92 l4.74 0 l0 2 l-4.74 0 l0 4 z M81.96000000000001 21.96 l5.94 0 l0 2.04 l-8.14 0 l0 -14 l2.2 0 l0 11.96 z M92.10000000000001 10 l0 14 l-2.2 0 l0 -14 l2.2 0 z M104 10 l2.2 0 l0 14 l-1.68 0 l-7.82 -9.98 l0 9.98 l-2.2 0 l0 -14 l1.7 0 l7.8 10 l0 -10 z M121.82 16.78 c0.44 4.58 -2.62 7.42 -6.32 7.42 c-3.84 0 -7.2 -2.96 -7.2 -7.2 s3.44 -7.2 7.2 -7.2 c1.8 0 3.42 0.6 4.66 1.66 l-1.34 1.52 c-0.88 -0.68 -2.02 -1.1 -3.18 -1.1 c-2.72 0 -5.06 2.12 -5.06 5.12 s2.26 5.12 4.92 5.12 c2.22 0 3.86 -1.02 4.28 -3.44 l-3.74 0 l0 -1.9 l5.78 0 z M122.75999999999999 26.64 l1.7 -4.84 l1.9 0 l-1.76 4.84 l-1.84 0 z  M138.46 10 c3.14 0 5.06 1.92 5.06 4.62 s-1.92 4.5 -5.06 4.5 l-2.5 0 l0 4.88 l-2.2 0 l0 -14 l4.7 0 z M138.36 17.2 c1.78 0 2.96 -0.84 2.96 -2.58 s-1.18 -2.58 -2.96 -2.58 l-2.4 0 l0 5.16 l2.4 0 z M147.62 21.96 l5.94 0 l0 2.04 l-8.14 0 l0 -14 l2.2 0 l0 11.96 z M157.76000000000002 21.96 l5.94 0 l0 2.04 l-8.14 0 l0 -14 l2.2 0 l0 11.96 z M177.34 22.5 c-1.26 1.1 -2.9 1.7 -4.72 1.7 c-3.76 0 -7.22 -2.96 -7.22 -7.2 s3.46 -7.2 7.22 -7.2 c1.8 0 3.42 0.6 4.66 1.66 l-1.34 1.52 c-0.88 -0.68 -2.02 -1.1 -3.18 -1.1 c-2.72 0 -5.08 2.12 -5.08 5.12 s2.36 5.12 5.08 5.12 c1.18 0 2.36 -0.44 3.24 -1.16 z"/></g>
			</g>
		</svg>
	